<svg xmlns="http://www.w3.org/2000/svg" viewBox="0 0 1200 630" role="img" aria-labelledby="title desc">
  <title id="title">Axios Supply Chain Attack</title>
  <desc id="desc">Formal security report cover image for an Axios npm supply chain attack article.</desc>
  <defs>
    <linearGradient id="bg" x1="0" y1="0" x2="1" y2="1">
      <stop offset="0%" stop-color="#0d1117"/>
      <stop offset="55%" stop-color="#121923"/>
      <stop offset="100%" stop-color="#1a2431"/>
    </linearGradient>
    <linearGradient id="line" x1="0" y1="0" x2="1" y2="0">
      <stop offset="0%" stop-color="#4f6b8a" stop-opacity="0"/>
      <stop offset="50%" stop-color="#9db4cc" stop-opacity="0.85"/>
      <stop offset="100%" stop-color="#4f6b8a" stop-opacity="0"/>
    </linearGradient>
  </defs>
  <rect width="1200" height="630" fill="url(#bg)"/>
  <g opacity="0.16">
    <path d="M0 130H1200" stroke="url(#line)" stroke-width="1"/>
    <path d="M0 220H1200" stroke="url(#line)" stroke-width="1"/>
    <path d="M0 310H1200" stroke="url(#line)" stroke-width="1"/>
    <path d="M0 400H1200" stroke="url(#line)" stroke-width="1"/>
    <path d="M0 490H1200" stroke="url(#line)" stroke-width="1"/>
    <path d="M180 0V630" stroke="url(#line)" stroke-width="1"/>
    <path d="M420 0V630" stroke="url(#line)" stroke-width="1"/>
    <path d="M660 0V630" stroke="url(#line)" stroke-width="1"/>
    <path d="M900 0V630" stroke="url(#line)" stroke-width="1"/>
  </g>
  <rect x="86" y="82" width="170" height="34" rx="4" fill="#16212d" stroke="#607d9c"/>
  <text x="171" y="104" fill="#c6d4e3" font-size="18" font-family="IBM Plex Mono, monospace" text-anchor="middle" letter-spacing="2">INCIDENT REPORT</text>
  <text x="86" y="210" fill="#f5f7fa" font-size="62" font-weight="700" font-family="Segoe UI, Arial, sans-serif">Axios npm</text>
  <text x="86" y="284" fill="#d8e0ea" font-size="58" font-weight="700" font-family="Segoe UI, Arial, sans-serif">Supply Chain Attack</text>
  <text x="86" y="345" fill="#9fb0c2" font-size="24" font-family="Segoe UI, Arial, sans-serif">Compromised package release, postinstall execution, and response considerations.</text>
  <g transform="translate(86 420)">
    <rect width="316" height="104" rx="8" fill="#101821" stroke="#32475d"/>
    <text x="24" y="34" fill="#7f95ad" font-size="15" font-family="IBM Plex Mono, monospace">AFFECTED VERSIONS</text>
    <text x="24" y="66" fill="#f2f5f8" font-size="28" font-weight="700" font-family="IBM Plex Mono, monospace">1.14.1 / 0.30.4</text>
    <text x="24" y="89" fill="#93a6bb" font-size="16" font-family="Segoe UI, Arial, sans-serif">npm registry distribution compromise</text>
  </g>
  <g transform="translate(902 92)">
    <rect x="0" y="0" width="210" height="210" rx="18" fill="#101821" stroke="#44586f"/>
    <path d="M105 44l49 28v56c0 38-21 74-49 92-28-18-49-54-49-92V72l49-28z" fill="#162535" stroke="#9eb0c4" stroke-width="3"/>
    <path d="M105 87l22 13v26c0 17-9 34-22 44-13-10-22-27-22-44v-26l22-13z" fill="#c23b32"/>
    <path d="M98 132l-12-12 8-8 4 4 18-18 8 8-26 26z" fill="#f7fafc"/>
  </g>
  <text x="907" y="356" fill="#9eb0c4" font-size="17" font-family="IBM Plex Mono, monospace">THREAT ACTOR</text>
  <text x="907" y="388" fill="#eef3f8" font-size="30" font-weight="700" font-family="IBM Plex Mono, monospace">UNC1069</text>
  <text x="907" y="444" fill="#9eb0c4" font-size="17" font-family="IBM Plex Mono, monospace">STATUS</text>
  <text x="907" y="476" fill="#f6b26b" font-size="30" font-weight="700" font-family="IBM Plex Mono, monospace">CRITICAL</text>
  <text x="86" y="588" fill="#71849a" font-size="18" font-family="IBM Plex Mono, monospace">2026.04.01  |  Technical Briefing</text>
</svg>
